<svg id="Layer_1" data-name="Layer 1" xmlns="http://www.w3.org/2000/svg" viewBox="0 0 437.46 490.65"><defs><style>.cls-1,.cls-2{fill:#fff;}.cls-2{font-size:86.9px;font-family:Nexa-Heavy, Nexa;font-weight:800;}</style></defs><polygon class="cls-1" points="77.94 118.61 151.6 193.54 34.66 310.23 66.07 341.89 213.9 193.29 108.58 87.84 77.94 118.61"/><polygon class="cls-1" points="304.44 47.85 227.76 119.7 113.92 0 81.52 30.64 226.53 181.98 334.47 79.22 304.44 47.85"/><polygon class="cls-1" points="378.09 267.23 304.62 192.11 421.85 75.72 390.52 43.98 242.32 192.21 347.38 297.92 378.09 267.23"/><polygon class="cls-1" points="151.41 337.42 228.27 265.76 341.82 385.75 374.3 355.19 229.67 203.48 121.47 305.98 151.41 337.42"/><text class="cls-2" transform="translate(0 465.97) scale(1.41 1)">NEXUS</text></svg>